<svg width="30" height="30" viewBox="0 0 30 30" fill="none" xmlns="http://www.w3.org/2000/svg">
<path d="M12.3898 7.55988C12.0316 3.4405 7.73415 1.41925 7.55227 1.33675C7.38225 1.25683 7.19171 1.23129 7.00665 1.26363C2.0454 2.08675 1.29915 4.97425 1.26915 5.09425C1.22833 5.26148 1.23482 5.43676 1.2879 5.6005C7.2054 23.9605 19.5035 27.3636 23.546 28.483C23.8573 28.5693 24.1141 28.6386 24.3091 28.7024C24.5317 28.7751 24.7734 28.761 24.986 28.663C25.1098 28.6068 28.031 27.2305 28.7454 22.7418C28.7771 22.5458 28.7456 22.3448 28.6554 22.168C28.5916 22.0443 27.0635 19.1361 22.826 18.1086C22.6823 18.0719 22.5317 18.0706 22.3874 18.1049C22.243 18.1392 22.1091 18.208 21.9973 18.3055C20.6604 19.4474 18.8135 20.6643 18.0166 20.7899C12.6748 18.178 9.69165 13.1661 9.57915 12.2155C9.51352 11.6811 10.7379 9.80425 12.146 8.278C12.2345 8.18195 12.3019 8.06842 12.3439 7.94474C12.3859 7.82106 12.4015 7.68996 12.3898 7.55988Z" fill="white"/>
</svg>
