<svg width="42" height="123" viewBox="0 0 42 123" fill="none" xmlns="http://www.w3.org/2000/svg">
<path d="M24.671 119.749C24.2151 119.749 23.7592 119.749 23.3032 119.749C14.9439 119.316 8.10358 111.691 5.32897 104.8C3.65667 100.83 2.92099 96.4789 3.18692 92.1315C3.41459 89.6168 3.74346 86.3138 4.275 82.9835C4.80654 79.6532 6.60472 77.1247 8.3396 74.6778C8.94744 73.8078 9.60597 72.9514 10.1125 72.0542C10.3784 71.6056 10.6443 71.1978 10.8976 70.8171C11.9218 69.6392 12.4762 68.0781 12.4422 66.4673C12.3324 65.1652 12.0901 63.8798 11.7198 62.6342C11.5171 61.8187 11.3143 61.0031 11.1495 60.1604C10.9804 59.1282 10.8955 58.0822 10.8959 57.0341C10.8932 56.3893 10.8593 55.745 10.7943 55.1039C10.7205 54.4999 10.6147 53.9009 10.4774 53.3098C10.238 52.3178 10.0935 51.3021 10.0464 50.2786C9.95733 46.7445 9.84284 42.626 11.0077 39.3364C12.3573 35.6524 13.909 32.0575 15.6546 28.5703C17.0517 25.9874 18.7779 23.6265 20.7832 21.5558C21.4037 20.8489 22.0496 20.1964 22.6195 19.4488C27.4696 13.5625 34.524 10.8431 40.7425 8.43639C46.2976 6.25722 52.0762 4.80075 57.9544 4.09817L60.6521 3.74441C62.6365 3.42216 64.6369 3.22675 66.6428 3.15919C66.9202 3.11869 67.2014 3.11865 67.4787 3.15908L68.5933 3.15895L68.5933 3.48516C68.7095 3.52516 68.828 3.55694 68.948 3.58027C69.8247 3.52477 70.6993 3.72178 71.4812 4.15087C73.2113 4.94688 75.0429 5.45982 76.9149 5.67258C78.7359 5.73523 80.5217 6.2269 82.1459 7.11276C82.8128 7.58072 83.4178 8.14302 83.9446 8.78445C84.2391 9.13455 84.5566 9.46158 84.8947 9.76301C85.2445 10.0498 85.5747 10.3632 85.8827 10.7008L86.6554 11.4891C88.4909 13.2414 90.1011 15.2478 91.4437 17.4557C92.0931 18.577 92.8082 19.6529 93.5846 20.6769C95.2936 22.7766 96.5867 25.2276 97.3852 27.8806C98.366 31.968 98.8266 36.1792 98.7546 40.3993L98.7548 42.0712C98.6244 43.8274 98.7313 45.5946 99.0721 47.318C99.7664 49.5854 100.724 51.75 101.923 53.7606C102.614 54.9485 103.398 56.0716 104.266 57.1177C105.155 58.2029 105.968 59.3567 106.698 60.5699C109.489 65.2044 110.952 70.6155 110.905 76.1331C110.906 78.1992 110.906 80.2109 110.906 82.345C110.906 83.1334 110.906 83.9489 110.906 84.7645C111.012 86.5762 110.987 88.394 110.831 90.2016C110.578 91.8117 110.153 93.3852 109.565 94.8912L109.274 95.7748C108.57 98.3936 107.507 100.886 106.121 103.17C103.689 106.674 100.777 109.763 97.4843 112.332C94.9515 114.399 92.2284 114.834 89.4168 115.296L88.7455 115.405C87.2693 115.677 85.7717 115.791 84.2745 115.746C82.5267 115.746 80.7788 115.42 79.0816 115.175L76.0039 114.754C73.9003 114.576 71.8178 114.18 69.785 113.573C68.987 113.314 68.2016 113.029 67.4163 112.744C65.2736 111.863 63.0483 111.235 60.7794 110.869C57.1099 110.436 53.3966 110.825 49.8745 112.012C47.6328 112.787 45.4038 113.78 43.2508 114.731C40.8394 115.868 38.3749 116.871 35.8672 117.736C32.2461 118.988 28.4744 119.666 24.671 119.749V119.749ZM67.0485 6.35344L67.0486 6.51654C65.0425 6.56302 63.0414 6.74944 61.0579 7.07459C60.1333 7.21064 59.2087 7.33307 58.2715 7.44193C52.6487 8.12975 47.1218 9.53123 41.8068 11.617C35.6517 13.9829 29.2939 16.4439 24.9629 21.6913C24.3551 22.4253 23.6965 23.1594 23.0634 23.8935C21.2657 25.747 19.707 27.8501 18.4285 30.1468C16.7434 33.4886 15.2425 36.9336 13.9335 40.4642C12.984 43.1829 13.0857 46.8937 13.1621 49.8977C13.1987 50.788 13.3219 51.6718 13.5297 52.5346C13.6923 53.2373 13.815 53.95 13.8973 54.6686C13.9861 55.4162 13.9988 56.1502 14.0242 56.8978C14.0211 57.7538 14.0847 58.6086 14.2145 59.4532C14.3666 60.2144 14.5567 60.9484 14.7467 61.6959C15.1695 63.1779 15.4415 64.7046 15.5579 66.2494C15.636 68.5936 14.8904 70.8836 13.4689 72.6654C13.2283 73.0189 12.9877 73.3995 12.7344 73.8209C12.1519 74.7725 11.4681 75.7104 10.835 76.6348C9.25204 78.8642 7.77044 80.9713 7.36545 83.4316C6.84657 86.6668 6.53033 89.8883 6.30266 92.3486C6.0736 96.1355 6.727 99.924 8.20385 103.372C10.7377 109.556 16.7546 115.999 23.4801 116.338C27.3976 116.463 31.3068 115.879 35.0435 114.61C37.4498 113.821 39.8309 112.747 42.1485 111.714C44.4662 110.68 46.6572 109.702 49.0129 108.886C52.9541 107.545 57.1139 107.109 61.2223 107.606C63.7064 107.999 66.1438 108.678 68.4926 109.631C69.2652 109.903 70.0252 110.188 70.7978 110.446C72.6425 110.98 74.5293 111.331 76.4341 111.492L79.5879 111.913C81.2074 112.187 82.8394 112.368 84.4768 112.456C85.7747 112.493 87.0728 112.392 88.3524 112.157L89.0363 112.048C91.6707 111.613 93.7605 111.272 95.7235 109.695C98.7546 107.337 101.436 104.5 103.676 101.281C104.851 99.3239 105.755 97.1948 106.361 94.9596L106.741 93.8042C107.219 92.5307 107.562 91.204 107.766 89.8486C107.887 88.1973 107.887 86.5384 107.765 84.8872C107.765 84.0309 107.765 83.1745 107.765 82.3454C107.765 80.2521 107.764 78.1588 107.764 76.0791C107.822 71.1981 106.544 66.4062 104.089 62.2966C103.434 61.2166 102.706 60.1899 101.911 59.2248C100.931 58.0357 100.05 56.7578 99.2757 55.4056C97.9362 53.1506 96.8717 50.7204 96.1085 48.1747C95.6776 46.1386 95.5321 44.0449 95.677 41.9628C95.677 41.4191 95.6769 40.889 95.6768 40.3589C95.7448 36.4414 95.3182 32.532 94.4088 28.7373C93.6981 26.5084 92.583 24.4527 91.1278 22.6889C90.2831 21.5562 89.5005 20.3718 88.7842 19.1415C87.5827 17.1865 86.1427 15.4129 84.5025 13.8681L83.7679 13.107C83.5352 12.8479 83.2854 12.6072 83.0205 12.3866C82.5681 11.9671 82.1448 11.5129 81.7538 11.0275C81.4157 10.6006 81.0284 10.2215 80.6011 9.89944C79.3638 9.2891 78.0233 8.95624 76.662 8.92125C74.4512 8.67938 72.289 8.06975 70.253 7.11423C69.8653 6.89138 69.4232 6.8013 68.9864 6.85612C68.4549 6.83106 67.9299 6.72119 67.4285 6.5301L67.1625 6.43498L67.0486 6.43499L67.0485 6.35344Z" stroke="#EFF0F6" stroke-width="5" stroke-miterlimit="10"/>
</svg>
