<svg width="91" height="231" viewBox="0 0 91 231" fill="none" xmlns="http://www.w3.org/2000/svg">
<path d="M51.7037 228.376C50.0484 228.311 48.4048 228.052 46.8021 227.602C34.1362 224.6 16.9357 219.043 11.3358 204.893C9.8788 201.223 9.90368 197.798 9.92857 194.169L9.92845 193.244C9.92834 192.347 9.92824 191.45 9.8648 190.526C9.74878 188.568 9.79092 186.604 9.99074 184.654C10.6108 180.973 11.6306 177.382 13.0291 173.956C13.6622 172.23 14.2952 170.53 14.8017 168.831C15.0802 167.88 15.4347 166.928 15.7892 165.99C16.328 164.624 16.7517 163.21 17.0552 161.763C17.2441 159.974 17.0578 158.163 16.51 156.462L16.3072 155.578C15.3964 150.928 13.6211 146.522 11.0874 142.625C10.2801 141.475 9.38156 140.402 8.40193 139.417C6.24851 137.12 3.81641 134.525 3.46135 131.113C3.17495 127.363 3.17448 123.594 3.45996 119.844C3.81277 115.676 4.88604 111.615 6.62485 107.869C7.77895 105.886 9.25932 104.145 10.9938 102.73C11.3864 102.363 11.779 102.01 12.1462 101.643C15.7987 98.2266 18.8709 94.1559 21.2259 89.612C23.4751 85.3995 24.264 80.4693 23.4533 75.6928C23.2645 74.4024 23.015 73.123 22.7056 71.8597C21.9706 68.6247 21.2736 65.5528 22.641 61.4069C24.2125 57.3533 26.2776 53.5411 28.7824 50.0698L29.6941 48.7104C32.9414 44.0004 36.6522 39.6797 40.7622 35.8231L41.2054 35.3745C46.4739 29.7564 52.32 24.7988 58.6313 20.597C60.1611 19.691 61.7581 18.9225 63.406 18.2993C64.5829 17.8528 65.737 17.3399 66.8635 16.7629C68.0539 16.1103 69.2317 15.4033 70.4095 14.7235C71.9166 13.8262 73.4238 12.9289 74.9815 12.1403L76.248 11.5013C78.3343 10.296 80.5388 9.34291 82.8211 8.65961C83.5903 8.49014 84.3686 8.372 85.1514 8.3059C86.1817 8.23774 87.1971 8.00865 88.1657 7.62589L88.457 7.50352L88.7737 7.50348C90.4818 7.47339 92.1813 7.23608 93.8398 6.79605C95.2302 6.3676 96.7049 6.36741 98.0955 6.79552C98.4374 6.90422 98.7414 7.01292 99.0201 7.13522C99.5193 7.36958 100.058 7.48984 100.603 7.48841V7.48841C101.624 7.49977 102.637 7.68315 103.605 8.03178C104.01 8.16766 104.441 8.3035 104.973 8.42577C105.555 8.49648 106.143 8.37303 106.657 8.07218C107.25 7.79254 107.87 7.58719 108.507 7.46026C109.19 7.35584 109.881 7.31937 110.571 7.35128C111.076 7.40572 111.586 7.40566 112.091 7.35109C114.825 6.79569 117.527 6.07378 120.184 5.18885C122.603 4.44094 125.098 3.67944 127.631 3.14901C130.535 2.63554 133.482 2.45743 136.421 2.61778L136.991 2.61771C139.734 2.73256 142.414 3.53277 144.818 4.95469L146.465 5.77006C147.39 6.20492 148.314 6.57179 149.251 6.93867C150.544 7.41986 151.813 7.97323 153.051 8.59652C156.34 10.4491 159.292 12.9212 161.766 15.8947C162.678 16.9005 163.628 17.7839 164.578 18.6945L166.225 20.1759C168.693 22.8541 170.372 26.253 171.052 29.9485C172.022 34.6523 172.662 39.4276 172.966 44.2342C173.232 47.3605 173.511 50.582 173.98 53.6674C175.068 61.2965 176.579 68.8491 178.505 76.2852C179.113 78.5551 179.595 80.9474 180.064 83.2581C180.745 87.4242 181.859 91.4954 183.383 95.396C184.763 98.2606 186.437 100.95 188.375 103.415C190.046 105.618 191.566 107.948 192.922 110.388C195.849 116.015 200.017 124.469 202.222 132.828C202.996 136.33 203.303 139.931 203.135 143.525L203.135 145.075C203.135 145.714 203.135 146.339 203.135 146.964C203.282 149.504 203.091 152.054 202.566 154.536C201.715 158.038 200.558 161.447 199.11 164.717C198.566 165.859 198.021 167.042 197.477 168.238C196.337 170.766 195.147 173.362 193.88 175.741C190.538 182.008 185.409 186.386 180.432 190.695C178.697 192.177 176.949 193.672 175.277 195.236C171.123 199.151 165.956 204.018 160.46 206.941C145.414 214.949 128.924 213.116 114.637 210.752C113.471 210.562 112.281 210.304 111.09 210.06C108.835 209.498 106.538 209.153 104.225 209.028C102.705 209.028 101.173 209.028 99.6403 209.028L96.2587 209.029L94.6248 209.029C92.8142 208.858 90.9896 209.019 89.2294 209.505C87.7897 210.075 86.3925 210.761 85.05 211.558C83.9102 212.197 82.7831 212.823 81.6559 213.326C78.0601 215.045 74.6215 217.121 71.3848 219.525C69.5359 220.885 67.6869 222.108 65.7492 223.291C63.7453 224.41 61.646 225.321 59.4801 226.01C58.2136 226.486 56.9471 226.949 55.7439 227.506C54.4685 228.095 53.0923 228.392 51.7037 228.376V228.376ZM89.0021 10.888C87.852 11.3273 86.6493 11.5884 85.4305 11.6633C84.7673 11.7237 84.1077 11.8237 83.4547 11.9626C81.4154 12.5785 79.4416 13.4215 77.5656 14.478L76.2991 15.1441C74.8046 15.8919 73.3609 16.7621 71.9045 17.6186C70.7014 18.3391 69.4855 19.0597 68.2444 19.7259C67.0275 20.3539 65.7803 20.9121 64.5083 21.3983C63.0181 21.9528 61.5735 22.6395 60.1896 23.4513C54.0892 27.5288 48.4461 32.3458 43.3715 37.8073L42.9156 38.2559C38.9668 41.9533 35.4004 46.0962 32.2781 50.6131L31.3537 51.9724C29.02 55.2018 27.0875 58.7432 25.6048 62.5075C24.554 65.7155 25.0862 68.0806 25.7579 71.071C26.0494 72.3486 26.3535 73.7079 26.5563 75.1487C27.4816 80.6397 26.586 86.305 24.0252 91.1612C21.4943 96.0814 18.1864 100.493 14.249 104.198C13.8564 104.579 13.4385 104.959 12.9826 105.34C11.5454 106.512 10.3036 107.937 9.31015 109.554C7.79267 112.874 6.849 116.462 6.52503 120.143C6.25846 123.699 6.2589 127.272 6.52636 130.827C6.76728 133.07 8.6927 135.149 10.5674 137.147C11.6891 138.265 12.7151 139.489 13.633 140.803C16.3708 145.027 18.304 149.789 19.3215 154.817L19.5243 155.659C20.2193 157.843 20.4193 160.173 20.1077 162.456C19.7522 164.099 19.2607 165.705 18.6391 167.254C18.3099 168.124 17.9934 168.994 17.7275 169.878C17.1958 171.631 16.5501 173.412 15.8917 175.193C14.5917 178.383 13.6319 181.721 13.0305 185.143C12.8603 186.895 12.8308 188.659 12.9425 190.417C12.9426 191.368 13.0061 192.32 13.0062 193.258L13.0063 194.196C13.0067 197.607 13.0071 200.557 14.1601 203.574C19.2278 216.324 35.5163 221.514 47.3083 224.313C50.1581 224.978 52.2607 225.481 54.5023 224.448C55.7688 223.863 57.1113 223.374 58.4664 222.871C60.4418 222.215 62.3578 221.368 64.191 220.342C66.078 219.186 67.889 217.922 69.6874 216.671C73.0819 214.154 76.6855 211.979 80.4523 210.172C81.5161 209.71 82.5546 209.125 83.6058 208.541C85.0952 207.654 86.6497 206.899 88.2537 206.284C90.3501 205.661 92.5324 205.44 94.7004 205.631C95.3464 205.63 95.967 205.63 96.6762 205.63L99.5893 205.63C101.147 205.63 102.718 205.63 104.276 205.629C106.77 205.763 109.249 206.127 111.685 206.716C112.825 206.96 113.965 207.205 115.105 207.395C128.91 209.677 144.831 211.469 159.066 203.896C164.208 201.177 169.198 196.446 173.225 192.667C174.922 191.063 176.708 189.54 178.493 188.018C183.445 183.79 188.131 179.793 191.157 174.097C192.423 171.813 193.538 169.258 194.652 166.784C195.209 165.56 195.754 164.364 196.298 163.209C197.651 160.152 198.737 156.966 199.539 153.693C199.981 151.516 200.134 149.283 199.994 147.06C199.994 146.407 199.994 145.701 199.994 145.103L199.994 143.526C200.159 140.248 199.89 136.963 199.195 133.766C196.954 126.178 193.928 118.884 190.174 112.019C188.902 109.719 187.47 107.525 185.892 105.454C183.809 102.801 182.015 99.9008 180.547 96.81C178.915 92.6863 177.724 88.3772 176.999 83.9653C176.517 81.6002 176.061 79.3711 175.478 77.1691C173.528 69.6057 171.992 61.9265 170.877 54.1708C170.396 50.9765 170.117 47.6735 169.838 44.4929C169.539 39.8782 168.921 35.2939 167.987 30.778C167.446 27.7127 166.091 24.8805 164.085 22.6229L162.539 21.1686C161.526 20.2173 160.513 19.2659 159.55 18.2058C157.316 15.5076 154.652 13.2573 151.684 11.5599C150.544 10.962 149.353 10.5 148.175 10.0244C146.997 9.54878 146.199 9.24984 145.224 8.78781C144.616 8.50243 144.046 8.21705 143.501 7.93167C141.485 6.70971 139.228 6.01607 136.915 5.90718L136.345 5.90725C133.633 5.74262 130.912 5.8796 128.227 6.31603C125.846 6.81925 123.414 7.56714 121.058 8.30144C118.282 9.21358 115.462 9.96263 112.611 10.5453C111.923 10.6495 111.228 10.686 110.533 10.6543C110.036 10.6069 109.536 10.607 109.039 10.6545C108.606 10.7531 108.182 10.8942 107.772 11.076C106.714 11.64 105.516 11.8259 104.353 11.6066C103.788 11.4836 103.23 11.3294 102.681 11.1446C102.007 10.8793 101.296 10.7415 100.578 10.7371V10.7371C99.665 10.7405 98.7605 10.5464 97.9185 10.1665C97.7032 10.085 97.4752 9.9899 97.2092 9.90838C96.358 9.63652 95.4514 9.63664 94.6001 9.9087C92.753 10.4079 90.8658 10.7176 88.9641 10.8337L89.0021 10.888Z" stroke="#EFF0F6" stroke-width="5" stroke-miterlimit="10"/>
</svg>
