<svg width="56" height="163" viewBox="0 0 56 163" fill="none" xmlns="http://www.w3.org/2000/svg">
<path d="M29.2004 159.56C28.1763 159.557 27.153 159.494 26.1354 159.37C22.8163 159.053 19.5952 157.998 16.6773 156.271C13.7593 154.544 11.2086 152.184 9.18762 149.341C6.9105 146.054 5.16722 142.378 4.03139 138.467C3.32038 135.048 3.10632 131.531 3.39682 128.042C3.39672 127.158 3.39659 126.302 3.45981 125.446C3.66358 116.619 4.93984 107.86 7.25624 99.3879C8.38317 95.1001 9.88383 90.9358 11.7383 86.95C13.2324 83.7555 13.9161 81.2135 13.0037 77.6388C10.406 67.4174 9.69576 59.3434 10.7714 52.207C11.5238 48.5797 12.9023 45.1356 14.8358 42.0528L15.6589 40.5303C17.6265 36.8228 19.8979 33.3107 22.4463 30.0359C24.638 27.4509 27.3734 25.4652 30.4248 24.2443C31.1087 23.8908 31.818 23.551 32.5526 23.1567C33.7979 22.4445 34.988 21.6261 36.1113 20.7095C37.3052 19.6916 38.576 18.7821 39.9106 17.9905L42.5702 16.6309C44.9385 15.5147 47.2174 14.1915 49.3837 12.6746C52.3145 10.3046 55.553 8.40824 58.9961 7.04599C59.8953 6.73325 60.8073 6.39333 61.7445 6.0398C64.6818 4.76554 67.7663 3.92379 70.914 3.53756C74.2994 3.3269 77.6961 3.50421 81.0465 4.06644C88.38 5.2617 95.2577 8.53667 101.908 11.6894L103.174 12.3009C119.704 20.1419 124.341 37.7846 128.827 54.8566C129.828 58.6624 130.779 62.2644 131.856 65.7304C132.02 66.2741 132.21 66.8177 132.388 67.3343C132.94 68.7476 133.335 70.2257 133.566 71.7382C133.737 73.5447 133.767 75.3634 133.655 77.1753C133.405 79.6105 133.617 82.0748 134.277 84.4201C134.847 86.024 135.544 87.6006 136.152 89.1773C137.289 91.764 138.262 94.4294 139.066 97.1559C139.302 97.9915 139.497 98.8399 139.649 99.6976C140.257 103.608 140.474 107.577 140.297 111.537C140.196 119.081 138.108 130.173 132.548 136.616C130.635 138.51 128.375 139.955 125.912 140.858C124.899 141.32 123.898 141.769 123.012 142.218C121.103 143.382 119.27 144.685 117.528 146.12C116.059 147.262 114.552 148.444 112.931 149.505L111.424 150.484C108.77 152.435 105.864 153.96 102.799 155.011C98.8978 156.101 94.8972 156.73 90.8685 156.888L89.4754 156.957C85.6393 157.261 81.7852 157.184 77.9623 156.727C75.2653 156.246 72.5999 155.579 69.9828 154.73L68.0703 154.159C59.8627 151.754 52.3647 151.796 45.8042 154.243C44.3858 154.787 43.0053 155.44 41.6375 156.092C39.5324 157.179 37.3412 158.062 35.0898 158.73C33.1658 159.265 31.1878 159.544 29.2004 159.56V159.56ZM73.6248 6.77231C72.7762 6.77241 71.9403 6.77251 71.0917 6.85417C68.2304 7.22323 65.4277 8.00072 62.7581 9.16599C61.7956 9.53311 60.8584 9.88665 59.9338 10.1994C56.7588 11.4639 53.7724 13.218 51.0686 15.4065C48.7686 17.0234 46.3501 18.4374 43.8371 19.6348C42.9759 20.0698 42.1147 20.5049 41.2408 20.9944C40.0383 21.6856 38.8904 22.4813 37.8087 23.3735C36.5549 24.4022 35.2202 25.312 33.8195 26.0926L31.6032 27.2074C28.9771 28.2417 26.6163 29.9281 24.7137 32.1288C22.2781 35.249 20.1082 38.5975 18.2302 42.1339L17.3944 43.6836C15.667 46.418 14.4184 49.4675 13.7099 52.6824C12.7228 59.3294 13.4077 66.9684 15.8787 76.7005C17.0445 81.2811 16.133 84.6794 14.3983 88.3905C12.6221 92.1905 11.1891 96.1643 10.1188 100.257C7.90313 108.451 6.67823 116.916 6.47422 125.445C6.47433 126.315 6.47444 127.199 6.39856 128.164C6.14269 131.306 6.32236 134.471 6.9317 137.556C7.95833 141.117 9.54355 144.463 11.6191 147.451C13.3867 149.916 15.6124 151.959 18.1548 153.452C20.6973 154.944 23.5011 155.854 26.3882 156.122C29.0382 156.453 31.7218 156.282 34.3168 155.618C36.3864 154.984 38.403 154.165 40.3453 153.17C41.8017 152.463 43.2582 151.811 44.7527 151.212C51.921 148.493 60.027 148.492 68.8172 151.046L70.755 151.63C73.2482 152.44 75.7865 153.079 78.3546 153.546C81.9894 153.964 85.6521 154.027 89.2976 153.735L90.6908 153.735C94.4925 153.575 98.2673 152.977 101.95 151.953C104.72 151.003 107.348 149.63 109.752 147.874L111.271 146.868C112.779 145.889 114.172 144.802 115.653 143.646C117.508 142.121 119.459 140.735 121.492 139.499C122.454 138.942 123.543 138.453 124.645 137.949C126.698 137.208 128.593 136.034 130.218 134.496C134.865 129.127 137.042 119.136 137.143 111.632C137.314 107.905 137.118 104.169 136.559 100.486C136.423 99.725 136.25 98.9718 136.039 98.2301C135.273 95.6428 134.346 93.1135 133.264 90.6593C132.593 89.0282 131.922 87.3972 131.339 85.7526C130.512 82.9906 130.232 80.0741 130.514 77.1892C130.61 75.5721 130.585 73.9494 130.438 72.3367C130.239 71.0842 129.903 69.8614 129.437 68.6939C129.234 68.123 129.044 67.5522 128.854 66.9541C127.752 63.3929 126.763 59.5871 125.788 55.9036C121.505 39.5928 117.07 22.6976 101.87 15.4954L100.603 14.8838C94.1436 11.8127 87.4558 8.63281 80.5276 7.50547C78.2468 7.07762 75.9395 6.83255 73.6248 6.77231V6.77231Z" stroke="#EFF0F6" stroke-width="5" stroke-miterlimit="10"/>
</svg>
