<svg width="7" height="50" viewBox="0 0 7 50" fill="none" xmlns="http://www.w3.org/2000/svg">
<path d="M25.4458 47.2207C23.2553 47.0736 21.1305 46.3604 19.2522 45.1418C16.7189 43.579 13.7168 40.8472 13.0325 37.9112C12.7598 36.3801 12.7596 34.8074 13.0319 33.2761C13.2573 32.1593 13.2915 31.0078 13.1328 29.8779C12.4798 28.1334 11.5061 26.5479 10.2698 25.216C9.57563 24.4631 8.79697 23.8057 7.95177 23.2589C6.49722 22.3544 5.24374 21.1207 4.27836 19.6437C2.85951 17.1428 3.0109 12.1951 4.13782 9.6123C7.01205 2.81557 15.0293 2.90973 19.8422 2.81398L20.2095 2.81394L22.6541 4.17291C23.7898 4.67341 25.0115 4.90951 26.2385 4.86566C28.2777 4.97415 30.6082 5.09622 32.3183 7.01259C32.6097 7.33877 33.015 7.74649 33.4583 8.1814C34.9056 9.41345 36.1148 10.9371 37.0179 12.6666C38.2088 15.8743 36.0561 19.0009 34.6378 21.0672L34.5491 21.1895C33.9081 22.0338 33.1424 22.7594 32.2823 23.3374C31.7292 23.689 31.2436 24.1504 30.8513 24.6969C30.4081 25.4717 30.5854 25.9339 31.9535 27.5512C32.4637 28.1119 32.9141 28.7319 33.2963 29.3997C35.1965 32.9064 33.8037 35.8562 32.5755 38.4525L32.3475 38.9283C32.05 39.6176 31.7921 40.3257 31.5752 41.0489C30.8536 43.2918 29.9673 46.0784 27.105 47.0166C26.5633 47.1663 26.005 47.2349 25.4458 47.2207V47.2207ZM19.5386 6.1986C14.3964 6.19924 8.86165 6.64847 7.02569 10.9848C6.32929 12.6432 6.19045 16.5035 7.02655 17.9171C7.77585 18.9684 8.71504 19.8466 9.78794 20.4994C12.7675 22.4951 15.0377 25.5052 16.2358 29.0484C16.5273 30.6005 16.5275 32.1993 16.2364 33.7515C16.0198 34.86 15.9813 36.0001 16.1228 37.1225C16.4776 38.6448 18.4284 40.7651 20.873 42.26C23.0136 43.619 25.1668 44.1624 26.3447 43.7817C27.5225 43.4009 28.105 42.0416 28.7886 39.9074C29.0429 39.0431 29.3517 38.1984 29.713 37.3791L29.9409 36.8897C31.2071 34.3069 31.7642 32.8117 30.7634 31.0176C30.4748 30.5568 30.1484 30.1246 29.788 29.7264C28.5973 28.3672 26.6211 25.9616 28.3433 22.9302C28.9493 21.9923 29.7351 21.2043 30.6481 20.6191C31.222 20.2489 31.7424 19.7909 32.1931 19.2596L32.2818 19.1373C33.2948 17.6691 34.8144 15.4397 34.2696 13.9446C33.4953 12.7203 32.561 11.6217 31.4955 10.6827C30.9888 10.1934 30.5328 9.73133 30.2287 9.32358C29.38 8.35861 27.9361 8.29084 26.2516 8.1959C24.5819 8.24262 22.9239 7.88506 21.4006 7.14983L19.5386 6.1986Z" stroke="#EFF0F6" stroke-width="5" stroke-miterlimit="10"/>
</svg>
